# xmcd
#
# Track frame offsets:
#	150
#	12385
#	32724
#	51354
#	69664
#	80204
#	108511
#	121079
#	132623
#	139815
#	151354
#	168566
#	184001
#	194477
#	211699
#	259599
#	279697
#	297617
#	315276
#	330075
#
# Disc length: 4678 seconds
#
# Revision: 0
# Processed by: cddbd v1.5.2PL0 Copyright (c) Steve Scherf et al.
# Submitted via: audiograbber 1.83.01
#
DISCID=2d124414
DTITLE=Georges Moustaki - Bobino 73
DYEAR=1973
DGENRE=Chanson francaise
TTITLE0=Je suis un autre
TTITLE1=L'homme au coeur blesse
TTITLE2=Mendiants et orgueilleux
TTITLE3=En Mediterranee
TTITLE4=Voyage
TTITLE5=Les enfants d'hier
TTITLE6=Les marchands
TTITLE7=La ligne droite
TTITLE8=Enfants de la Grece
TTITLE9=Nous sommes deux
TTITLE10=Je ne sais pas ou tu commences
TTITLE11=L'apolitique
TTITLE12=17 ans
TTITLE13=Declaration
TTITLE14=Nos corps
TTITLE15=Le quotidien
TTITLE16=Le facteur
TTITLE17=Les eaux de mars
TTITLE18=Hiroshima
TTITLE19=Les amis
EXTD=
EXTT0=
EXTT1=
EXTT2=
EXTT3=
EXTT4=
EXTT5=
EXTT6=
EXTT7=
EXTT8=
EXTT9=
EXTT10=
EXTT11=
EXTT12=
EXTT13=
EXTT14=
EXTT15=
EXTT16=
EXTT17=
EXTT18=
EXTT19=
PLAYORDER=
